<?xml version="1.0" encoding="UTF-8"?>
<svg id="Capa_2" data-name="Capa 2" xmlns="http://www.w3.org/2000/svg" viewBox="0 0 190.57 137.2">
  <defs>
    <style>
      .cls-1 {
        opacity: .85;
      }

      .cls-2 {
        fill: #fff;
      }

      .cls-3 {
        fill: #4057a3;
      }
    </style>
  </defs>
  <g id="Capa_1-2" data-name="Capa 1">
    <g>
      <g class="cls-1">
        <path class="cls-2" d="m36.9,30.82c.03-.42.07-.83.08-1.25.07-7.84.13-15.68.21-23.51.02-2.26,1.73-4.77,3.84-5.61.33-.13.73-.16,1.09-.16,7.35-.09,14.69-.22,22.04-.23C81.6.01,99.05.02,116.5,0c.48,0,.82.13,1.16.47,8.65,8.67,17.31,17.33,25.98,25.98.34.34.48.67.48,1.16-.01,8.23,0,16.47-.02,24.7,0,.37-.11.79-.28,1.12-1.16,2.15-2.35,4.29-3.53,6.43-.11.19-.23.38-.47.54v-30.4c-.35,0-.62,0-.89,0-7.58,0-15.16,0-22.74,0-1.12,0-2.06-.96-2.06-2.09,0-7.56,0-15.12,0-22.68,0-.28,0-.55,0-.9-.3-.02-.55-.04-.8-.04-23.37,0-46.75,0-70.12,0-.95,0-1.96,1.03-1.96,1.99,0,41.55,0,83.1,0,124.64,0,.96,1.02,1.97,1.99,1.97,31.54,0,63.08,0,94.62,0,1.02,0,1.99-.99,1.99-2.03,0-8.79,0-17.59.02-26.38,0-.48.15-1.01.37-1.45,1.12-2.15,2.3-4.27,3.46-6.4.11-.2.22-.39.45-.55,0,.2,0,.39,0,.59,0,9.56,0,19.13-.02,28.69,0,2.12-.15,4.24-.25,6.36-.07,1.5-.65,2.71-1.85,3.68-1.2.96-2.42,1.57-4.04,1.58-10.89.03-21.79.19-32.68.21-15.16.03-30.33,0-45.49-.05-5.83-.02-11.66-.15-17.49-.21-.84,0-1.56-.25-2.19-.76-.52-.43-1.03-.88-1.5-1.36-.98-.98-1.43-2.14-1.43-3.58-.02-7.86-.11-15.72-.18-23.58,0-.42-.05-.83-.08-1.25,0-25.19,0-50.39,0-75.58Zm99.36-5.13c-5.84-5.89-11.82-11.91-17.81-17.95v17.95h17.81Z"/>
        <path class="cls-2" d="m86.31,101.26c-.45.15-.91.27-1.35.46-4.32,1.83-8.21,4.36-11.93,7.22-3.38,2.6-6.87,5.06-10.37,7.49-1.57,1.08-3.28,1.97-5.19,2.36-.34.07-.69.12-1.04.16-2.78.29-4.42-1.56-3.8-4.29.36-1.58,1.1-3,2.17-4.18,1.43-1.56,2.9-3.1,4.49-4.5,1.74-1.53,3.85-2.35,6.17-2.51.46-.03.94.24,1.4.37-.25.41-.4.96-.76,1.21-.75.52-1.57,1.01-2.43,1.29-3.37,1.08-5.79,3.23-7.3,6.38-.3.63-.38,1.45-.3,2.16.11,1.05,1.01,1.58,2,1.22.89-.31,1.79-.7,2.57-1.23,3.7-2.56,7.36-5.18,11.03-7.77,3.79-2.67,7.56-5.39,11.71-7.49,1.46-.74,2.95-1.4,4.62-1.48,1.52-.08,2.53,1.14,1.96,2.54-.58,1.41-1.32,2.77-2.09,4.1-1.37,2.36-2.87,4.64-4.18,7.02-.66,1.19-1.12,2.51-1.51,3.82-.42,1.41.22,2.06,1.59,1.59,1.1-.38,2.2-.94,3.11-1.65,2.13-1.67,4.07-3.57,6.23-5.2,1.75-1.33,3.66-2.49,5.59-3.55.81-.45,1.87-.58,2.82-.62,1.16-.05,1.79.67,1.69,1.83-.08.92-.34,1.83-.59,2.72-.54,1.87.11,3.51,1.92,4.23,1,.4,2.11.63,3.18.68,3.75.2,7.36-.67,10.96-1.59.77-.2,1.54-.4,2.27-.68.27-.1.59-.46.61-.72.38-3.82,1.41-7.5,2.3-11.21.87-3.58,2.54-6.8,4.26-10,4.36-8.13,8.75-16.25,13.13-24.37.5-.92.62-.98,1.5-.5,2.92,1.6,5.83,3.23,8.75,4.83.53.29.66.55.35,1.13-5.26,9.55-10.47,19.13-15.79,28.65-.83,1.48-2.04,2.78-3.2,4.05-2.79,3.05-5.83,5.84-9.02,8.47-1.84,1.52-3.86,2.64-6.18,3.28-3.33.92-6.63,1.9-10.12,1.97-1.86.03-3.7-.11-5.39-.95-3.17-1.57-3.69-3.32-3.06-6.08.19-.81.33-1.63.5-2.44-.06-.06-.12-.12-.18-.17-.47.2-.98.34-1.4.62-1.97,1.32-3.94,2.66-5.87,4.04-2.33,1.67-4.6,3.42-6.96,5.05-.87.6-1.88,1.06-2.89,1.37-2.23.7-3.9-.56-3.97-2.92-.04-1.46.34-2.84,1.02-4.09,1.01-1.84,2.12-3.61,3.22-5.4,1.09-1.76,2.23-3.5,3.32-5.26.24-.38.39-.82.58-1.24-.06-.07-.11-.14-.17-.2Z"/>
        <path class="cls-2" d="m168.06,42.81c-.27.47-.42.72-.57.99-4.02,7.39-8.04,14.78-12.06,22.16-.8,1.47-.85,1.52-2.34.72-2.67-1.42-5.31-2.91-7.94-4.4-.93-.52-.92-.58-.39-1.55,5-9.16,10-18.33,15.01-27.48.98-1.8,2.01-3.58,3.03-5.35.7-1.21,2.3-1.49,3.53-.54.29-.4.6-.79.86-1.21.74-1.21,1.42-2.46,2.19-3.66.7-1.07,1.76-1.32,2.78-.76,1.22.66,1.66,1.63,1.13,2.85-.61,1.38-1.35,2.71-2.03,4.06-.16.31-.33.61-.5.94.5.3.98.55,1.4.86,1.14.83,1.41,1.69.83,2.97-.58,1.29-1.24,2.55-1.92,3.8-.23.42-.24.73,0,1.15,1.59,2.73,2.64,5.65,2.92,8.82.21,2.43,0,4.81-1.18,7-3.92,7.28-7.85,14.56-11.81,21.82-.79,1.46-2.58,1.62-3.7.43-.55-.59-.79-1.28-.41-2.05,1.07-2.17,2.13-4.35,3.26-6.49,2.57-4.89,5.09-9.8,7.79-14.62,1.47-2.62,1.56-5.25.86-8.03-.19-.75-.45-1.49-.74-2.42Z"/>
        <path class="cls-2" d="m90.46,42.87c-11.45,0-22.9-.01-34.35.02-1,0-1.37-.67-1.79-1.3-.39-.59-.22-1.21.17-1.76.58-.8,1.21-1.28,2.35-1.27,11.36.05,22.72.02,34.07.04,9.93.02,19.87.06,29.8.11,1.42,0,2.84.09,4.27.12.87.02,1.46.45,1.8,1.22.34.76.12,1.44-.39,2.08-.43.55-.91.79-1.65.79-11.43-.03-22.86-.02-34.28-.02Z"/>
        <path class="cls-2" d="m90.61,55.73c-11.5,0-22.99,0-34.49,0-.98,0-1.99-1.03-2.02-2.07-.03-1.07.79-1.95,1.91-1.97,5.39-.08,10.77-.18,16.16-.2,11.03-.04,22.06-.06,33.09-.03,6.46.02,12.92.14,19.38.22,1.21.01,1.93.46,2.22,1.33.26.78-.13,1.98-.89,2.57-.19.14-.52.15-.78.15-11.52,0-23.04,0-34.56,0Z"/>
        <path class="cls-2" d="m90.53,68.6c-11.48,0-22.95,0-34.43,0-.97,0-1.94-1.04-1.97-2.12-.03-1.1.72-1.91,1.85-1.92,7.07-.09,14.13-.23,21.2-.23,14.65,0,29.3.08,43.94.13,1.31,0,2.61.08,3.92.09.83,0,1.37.43,1.71,1.12.34.69.22,1.36-.23,1.98-.47.65-1.01.98-1.92.98-11.36-.04-22.72-.03-34.08-.03Z"/>
        <path class="cls-2" d="m78.12,81.47c-7.35,0-14.7,0-22.05,0-.95,0-1.93-1.1-1.98-2.13-.04-.81.87-1.94,1.89-1.95,11.78-.03,23.56-.13,35.34-.17,3.01-.01,6.02.13,9.02.18.89.01,1.45.45,1.79,1.2.33.73.13,1.41-.35,2.02-.45.57-.95.87-1.76.86-7.3-.04-14.6-.02-21.9-.02Z"/>
        <path class="cls-2" d="m77.62,30c-7.14,0-14.27,0-21.41,0-1.07,0-2.03-.95-2.08-2.06-.05-1.14.71-1.95,1.95-1.97,3.68-.08,7.37-.18,11.05-.18,9.21,0,18.42.02,27.63.05,1.45,0,2.89.06,4.34.12,1.13.04,1.85.59,2.06,1.53.19.82-.38,2.02-1.18,2.43-.21.11-.5.08-.75.08-7.21,0-14.41,0-21.62,0Z"/>
      </g>
      <path class="cls-3" d="m190.06,84.84l-5.89-13.93c-1.02-2.41-3.38-3.97-5.99-3.97h-3.7c-1.71,0-3.31.68-4.5,1.82-1.16-1.07-2.7-1.72-4.4-1.72h-3.85c-1.24,0-2.4.35-3.38.96-.22-.1-.44-.2-.67-.29.12-.15.24-.29.34-.45,1.21-1.82,1.42-4.12.57-6.12l-5.89-13.93c-1.02-2.41-3.38-3.97-5.99-3.97h-3.7c-2.19,0-4.18,1.1-5.38,2.87-1.65-1.39-4.32-2.77-8.41-2.77h-6.54c-.56,0-1.11.08-1.63.21-.52-.14-1.07-.21-1.63-.21h-12.13c-1.02,0-1.99.24-2.85.66-1.69-.59-3.52-.9-5.49-.9s-3.97.44-5.63,1.23c-1-.63-2.18-.99-3.44-.99h-3.85c-1.31,0-2.52.39-3.54,1.05-1.93-.88-4.05-1.33-6.34-1.33-2.41,0-4.65.57-6.61,1.59-1.09-.82-2.44-1.31-3.9-1.31h-11.12c-1.33,0-2.56.4-3.59,1.08-1.48-.64-3.34-1.08-5.66-1.08h-6.54c-3.59,0-6.5,2.91-6.5,6.5v13.83c0,1.24.35,2.39.95,3.38h-2.48c-.91,0-1.77.18-2.55.52-.78-.33-1.64-.52-2.55-.52h-3.89c-.53,0-1.05.07-1.54.19-.49-.12-1.01-.19-1.54-.19H6.5c-3.59,0-6.5,2.91-6.5,6.5v3.36c0,2.76,1.72,5.12,4.15,6.06v4.41c0,3.59,2.91,6.5,6.5,6.5h3.83c2.09,0,3.94-.99,5.13-2.52,2.19,1.78,5.1,2.78,8.5,2.78,4.37,0,7.93-1.64,10.21-4.46.17.45.38.88.65,1.29,1.21,1.82,3.24,2.91,5.42,2.91h4.03c1.34,0,2.61-.41,3.67-1.13,1.06.72,2.33,1.13,3.67,1.13h4.11c.97,0,1.91-.23,2.76-.63,1.7.56,3.52.87,5.4.87,2.11,0,4.05-.43,5.73-1.19.99.6,2.14.96,3.38.96h3.85c1.22,0,2.35-.34,3.32-.92,1.92.75,4.03,1.16,6.22,1.16,2.87,0,5.41-.79,7.41-2.14,1.18,1.18,2.8,1.91,4.6,1.91h3.83c1.38,0,2.65-.43,3.7-1.16,1.05.73,2.33,1.16,3.7,1.16h11.22c.61,0,1.21-.09,1.77-.25.56.16,1.15.25,1.77.25h3.79c1.06,0,2.07-.26,2.95-.71.9.46,1.91.71,2.95.71h3.36c1.53,0,2.93-.53,4.04-1.41,1.96,1.08,4.22,1.69,6.65,1.69,2.2,0,4.2-.44,5.99-1.27,1,.62,2.17.99,3.44.99h3.85c.52,0,1.02-.07,1.5-.18.49.12.99.18,1.5.18h4.03c1.34,0,2.61-.41,3.67-1.13,1.06.72,2.33,1.13,3.67,1.13h4.11c2.18,0,4.22-1.09,5.42-2.91,1.21-1.82,1.42-4.12.57-6.12Zm-145.13-15.04s-.02.04-.03.05c-.03-.03-.06-.06-.1-.08,0,0,0,0,0,0,.04.01.08.02.12.03Z"/>
      <g>
        <path class="cls-2" d="m128.56,73.54h3.58l5.69,7.31v-7.31h3.79v13.83h-3.36l-5.91-7.59v7.59h-3.79v-13.83Z"/>
        <g>
          <path class="cls-2" d="m38.73,49.83h6.54c2.11,0,3.58.55,4.51,1.5.81.79,1.23,1.86,1.23,3.22v.04c0,2.11-1.13,3.52-2.85,4.25l3.3,4.82h-4.43l-2.79-4.19h-1.68v4.19h-3.83v-13.83Zm6.36,6.64c1.3,0,2.06-.63,2.06-1.64v-.04c0-1.09-.79-1.64-2.08-1.64h-2.51v3.32h2.53Z"/>
          <path class="cls-2" d="m54.52,49.83h11.12v3.26h-7.33v2.09h6.64v3.02h-6.64v2.19h7.43v3.26h-11.22v-13.83Z"/>
          <path class="cls-2" d="m68.71,56.78v-.04c0-4.03,3.16-7.19,7.45-7.19,2.43,0,4.15.75,5.61,2.02l-2.25,2.71c-.99-.83-1.98-1.3-3.34-1.3-2,0-3.54,1.68-3.54,3.79v.04c0,2.23,1.56,3.83,3.75,3.83.93,0,1.64-.2,2.21-.57v-1.68h-2.73v-2.81h6.36v6.22c-1.46,1.21-3.5,2.13-6.01,2.13-4.31,0-7.53-2.96-7.53-7.15Z"/>
          <path class="cls-2" d="m86.04,49.83h3.85v13.83h-3.85v-13.83Z"/>
          <path class="cls-2" d="m92.95,61.61l2.13-2.55c1.36,1.09,2.88,1.66,4.49,1.66,1.03,0,1.58-.36,1.58-.95v-.04c0-.57-.45-.89-2.33-1.32-2.94-.67-5.22-1.5-5.22-4.35v-.04c0-2.57,2.04-4.43,5.36-4.43,2.35,0,4.19.63,5.69,1.84l-1.92,2.71c-1.26-.89-2.65-1.36-3.87-1.36-.93,0-1.38.4-1.38.89v.04c0,.63.47.91,2.39,1.34,3.18.69,5.16,1.72,5.16,4.31v.04c0,2.83-2.23,4.51-5.59,4.51-2.45,0-4.78-.77-6.48-2.29Z"/>
          <path class="cls-2" d="m111.45,53.19h-4.15v-3.36h12.13v3.36h-4.15v10.47h-3.83v-10.47Z"/>
          <path class="cls-2" d="m122.69,49.83h6.54c2.11,0,3.58.55,4.51,1.5.81.79,1.23,1.86,1.23,3.22v.04c0,2.11-1.13,3.52-2.85,4.25l3.3,4.82h-4.43l-2.79-4.19h-1.68v4.19h-3.83v-13.83Zm6.36,6.64c1.3,0,2.06-.63,2.06-1.64v-.04c0-1.09-.79-1.64-2.08-1.64h-2.51v3.32h2.53Z"/>
          <path class="cls-2" d="m143.03,49.73h3.7l5.89,13.93h-4.11l-1.01-2.47h-5.34l-.99,2.47h-4.03l5.89-13.93Zm3.36,8.48l-1.54-3.93-1.56,3.93h3.1Z"/>
          <path class="cls-2" d="m10.65,76.9h-4.15v-3.36h12.13v3.36h-4.15v10.47h-3.83v-10.47Z"/>
          <path class="cls-2" d="m21.72,81.31v-7.76h3.89v7.69c0,1.99,1.01,2.94,2.55,2.94s2.55-.91,2.55-2.85v-7.79h3.89v7.67c0,4.47-2.55,6.42-6.48,6.42s-6.4-1.99-6.4-6.32Z"/>
          <path class="cls-2" d="m50.29,73.44h3.7l5.89,13.93h-4.11l-1.01-2.47h-5.34l-.99,2.47h-4.03l5.89-13.93Zm3.36,8.48l-1.54-3.93-1.56,3.93h3.1Z"/>
          <path class="cls-2" d="m61.55,85.32l2.13-2.55c1.36,1.09,2.88,1.66,4.49,1.66,1.03,0,1.58-.36,1.58-.95v-.04c0-.57-.45-.89-2.33-1.32-2.94-.67-5.22-1.5-5.22-4.35v-.04c0-2.57,2.04-4.43,5.36-4.43,2.35,0,4.19.63,5.69,1.84l-1.92,2.71c-1.26-.89-2.65-1.36-3.87-1.36-.93,0-1.38.4-1.38.89v.04c0,.63.47.91,2.39,1.34,3.18.69,5.16,1.72,5.16,4.31v.04c0,2.83-2.23,4.51-5.59,4.51-2.45,0-4.78-.77-6.48-2.29Z"/>
          <path class="cls-2" d="m77.14,73.54h3.85v13.83h-3.85v-13.83Z"/>
          <path class="cls-2" d="m84.06,85.32l2.13-2.55c1.36,1.09,2.88,1.66,4.49,1.66,1.03,0,1.58-.36,1.58-.95v-.04c0-.57-.45-.89-2.33-1.32-2.94-.67-5.22-1.5-5.22-4.35v-.04c0-2.57,2.04-4.43,5.36-4.43,2.35,0,4.19.63,5.69,1.84l-1.92,2.71c-1.26-.89-2.65-1.36-3.87-1.36-.93,0-1.38.4-1.38.89v.04c0,.63.47.91,2.39,1.34,3.18.69,5.16,1.72,5.16,4.31v.04c0,2.83-2.23,4.51-5.59,4.51-2.45,0-4.78-.77-6.48-2.29Z"/>
          <path class="cls-2" d="m102.56,76.9h-4.15v-3.36h12.13v3.36h-4.15v10.47h-3.83v-10.47Z"/>
          <path class="cls-2" d="m113.8,73.54h11.12v3.26h-7.33v2.09h6.64v3.02h-6.64v2.19h7.43v3.26h-11.22v-13.83Z"/>
          <path class="cls-2" d="m145.18,80.5v-.04c0-4.03,3.1-7.19,7.29-7.19,2.83,0,4.64,1.19,5.87,2.88l-2.89,2.23c-.79-.99-1.7-1.62-3.02-1.62-1.94,0-3.3,1.64-3.3,3.66v.04c0,2.07,1.36,3.7,3.3,3.7,1.44,0,2.29-.67,3.12-1.68l2.88,2.06c-1.3,1.8-3.06,3.12-6.12,3.12-3.95,0-7.13-3.02-7.13-7.15Z"/>
          <path class="cls-2" d="m161.74,73.54h3.85v13.83h-3.85v-13.83Z"/>
          <path class="cls-2" d="m174.48,73.44h3.7l5.89,13.93h-4.11l-1.01-2.47h-5.34l-.99,2.47h-4.03l5.89-13.93Zm3.36,8.48l-1.54-3.93-1.56,3.93h3.1Z"/>
        </g>
      </g>
    </g>
  </g>
</svg>